PathFileType	4	(X/Y/Z)	Patient4_TMGait_0pt6_02_left_03.trc.trc
DataRate	CameraRate	NumFrames	NumMarkers	Units	OrigDataRate	OrigDataStartFrame	OrigNumFrames
77.777777777778	77.777777777778	5	33	mm	77.777777777778	124	       141
Frame#	Time	Sacral			L.Shoulder			Chest			R.Shoulder			Neck			R.ASIS			L.ASIS			R.Thigh.Superior			R.Thigh.Lateral			R.Thigh.Inferior			R.Patella			L.Thigh.Superior			L.Thigh.Lateral			L.Thigh.Inferior			L.Patella			L.Shank.Superior			L.Shank.Lateral			L.Shank.Inferior			R.Shank.Superior			R.Shank.Lateral			R.Shank.Inferior			R.Heel			R.Midfoot.Superior			R.Midfoot.Lateral			R.Toe			L.Heel			L.Midfoot.Lateral			L.Midfoot.Superior			L.Toe			L.Elbow			L.Wrist			R.Elbow			R.Wrist			
		X1	Y1	Z1	X2	Y2	Z2	X3	Y3	Z3	X4	Y4	Z4	X5	Y5	Z5	X6	Y6	Z6	X7	Y7	Z7	X8	Y8	Z8	X9	Y9	Z9	X10	Y10	Z10	X11	Y11	Z11	X12	Y12	Z12	X13	Y13	Z13	X14	Y14	Z14	X15	Y15	Z15	X16	Y16	Z16	X17	Y17	Z17	X18	Y18	Z18	X19	Y19	Z19	X20	Y20	Z20	X21	Y21	Z21	X22	Y22	Z22	X23	Y23	Z23	X24	Y24	Z24	X25	Y25	Z25	X26	Y26	Z26	X27	Y27	Z27	X28	Y28	Z28	X29	Y29	Z29	X30	Y30	Z30	X31	Y31	Z31	X32	Y32	Z32	X33	Y33	Z33	

124	5.111428571429	700.171094292881	1005.060242105274	535.342399648698	858.457966520950	1435.081128825174	357.439466983681	975.446971445663	1359.691626070740	505.338274879277	907.819297694292	1429.216622593493	687.336067927375	865.333742733230	1490.676505319858	512.110704877170	926.757496990384	936.268699253534	645.548076701373	906.479359633432	953.865053950178	370.746518983300	922.648274306240	722.834715704764	618.162238599845	813.448446966589	630.488589189757	674.483746860862	875.664315245954	563.683601644574	596.821862926505	853.160195885627	477.478761588107	598.097060113917	977.978681958458	765.972924683336	400.283045100933	920.129387774555	635.971886599005	330.022371660166	1023.256378535104	577.267736979037	390.872084445462	1044.027248001124	509.921412533520	392.478840216370	1027.203629650444	437.216076316064	383.407899118802	957.333572184113	308.277022637106	336.343935499693	1041.063479851451	208.495280906962	394.009636687483	811.282412305013	395.750180042238	602.249535758802	721.858825172902	304.768307967524	661.006770896249	746.787956994929	205.560638415495	595.137178253419	589.465691038473	53.638310880486	561.734125184944	764.510923360697	97.631418343690	595.120642697499	673.737872706456	39.353137608367	632.686966287262	881.567081277986	37.788847536195	617.989704098585	948.341216001880	39.074178538660	436.097281676223	1021.859178353857	38.196968191052	355.520277050538	1099.685996420155	106.562410715581	377.105660410307	1230.361889867322	63.726878414775	350.244480180765	739.319920283905	1100.643726541376	253.482484430365	748.383429637109	839.498109230535	250.210587924302	1012.863967267740	1099.028470173155	790.885572562279	1244.525549050637	1149.299793730067	710.748870197696	
125	5.124285714286	701.210529547220	1004.221341661781	533.041398905739	858.140996066348	1434.275529936339	355.200389085006	975.066700907833	1359.785258197710	503.581513471297	906.427989446111	1429.008111624394	685.387967834909	864.089186399365	1490.199240718592	509.837443127599	927.703861164363	935.547292495685	644.283537804831	908.303241350155	953.257100786250	369.430702498750	923.105129995124	721.858741120372	617.086435437435	813.220725068013	630.002739049359	673.174959824784	875.320961723869	562.682192361625	595.826994630769	851.994332554962	476.011594966213	597.003163016806	979.126048607215	763.890463017457	400.005503412928	919.924581463121	634.678331355437	330.140870540267	1021.994091641798	575.260727761971	392.052522557669	1041.203361362616	507.064857783627	394.137072862261	1023.862225011553	434.277066043352	384.643119885120	952.413614298802	306.351326243866	337.184159998540	1033.691468343811	205.296480518681	395.880232686062	808.829751058300	394.896432877950	601.460350991427	718.030225662674	305.405054358307	660.584360429084	741.269976834887	205.651421498373	595.000522008720	581.997260137857	55.345150712702	562.112827563489	757.327308850969	97.936609481392	595.428413668135	666.184551016417	40.010178252187	632.929771824040	873.897652028897	37.621128069538	618.065665036665	937.228795720209	38.045355429733	437.272100889362	1010.899569727293	36.639063903463	356.737967243795	1090.313558397432	102.766991526667	379.594800300330	1220.386662053772	57.077012104594	352.416990191571	741.675149341239	1098.910798673740	250.720797678360	754.715672925865	837.806031771180	246.803715010709	1008.321561693562	1097.586017250095	790.418697904396	1241.790388932166	1141.919359728207	710.825532386091	
126	5.137142857143	702.170077926517	1003.709929166753	530.737328828080	858.015986196018	1433.705604169811	352.896036171726	974.864431580909	1360.049699090923	501.736233020276	905.329315263293	1429.072435141446	683.344038509392	863.108020954630	1489.975592581167	507.459950200032	928.618424564104	935.035206164555	642.844276570299	909.910486310425	953.014756312353	367.960351955972	923.600285368882	721.127984480594	615.798722961372	813.175563994110	629.715582328740	671.767455281953	875.220199881483	561.880562336932	594.758264942371	851.167897134945	474.642643868419	595.972578600238	980.156904490851	762.322770491903	399.756694604846	920.055588470429	634.004444864829	329.928173110791	1020.885258534883	573.835630618296	393.138490328562	1038.652269744145	504.877229975452	395.521781204413	1020.892941290580	432.038527859701	385.562879733908	948.242851955492	305.059437558527	337.472087968190	1027.034480238896	202.874770827800	397.293583214097	806.577906708016	394.214136843589	600.711979306012	714.346067660310	306.316574955330	660.181993990056	735.915522618529	205.986455863913	594.963997907039	574.610520180361	57.445377342689	562.551772983952	750.321822581645	98.332413674083	595.815551969684	658.693267608990	40.830966565638	633.196791656029	866.266552954882	37.458572280077	618.120816827302	927.207608808413	37.422446645545	437.978879437086	1001.035787507431	35.709768895494	357.511901588641	1081.683672700858	100.005452432517	381.531462762293	1211.275488098469	52.031445609836	354.100746790953	744.545135467701	1097.328679441826	247.756742576978	761.869149750874	836.312044730771	243.095281586439	1003.260711647456	1096.198380562124	790.010752657573	1238.846055276713	1133.042008199082	711.508922299656	
127	5.150000000000	703.042681677522	1003.572686882850	528.438416760923	858.062859117804	1433.436323619292	350.567958433928	974.832905941777	1360.507486273145	499.817464985788	904.561798052047	1429.442823978340	681.226577544698	862.390954106285	1490.041987561298	505.031002594274	929.473076993799	934.792832772214	641.198223658612	911.259031251644	953.171618783996	366.288975898870	924.083419382447	720.702409373411	614.297902861978	813.294727555314	629.675287350101	670.292633558036	875.363489449474	561.329775615550	593.659822370254	850.720502063900	473.406244874001	595.111255863531	981.048317055728	761.382220697251	399.440170018530	920.503940459263	633.943889317028	329.378256880583	1019.950104919232	572.998553326677	393.987203788173	1036.396781334166	503.356000545559	396.535491563651	1018.283569827136	430.474451245643	386.144297268183	944.737060325345	304.379658096625	337.248778153094	1021.022122343559	201.194139368410	398.259377859314	804.545327188846	393.735196511159	600.071904333484	710.809778188438	307.549249498206	659.832587693872	730.755855079120	206.607353365674	595.073060777587	567.330008286684	59.997814403698	563.061768887445	743.532772929926	98.828633661530	596.309441195959	651.278135031093	41.842028332060	633.491349664361	858.676122085825	37.303331331250	618.150264123030	918.216441311968	37.153300517695	438.298967877252	992.186186771740	35.300099780060	357.907431317891	1073.729127476368	98.202940668281	382.899626220390	1202.959896381880	48.504481635162	355.266134982544	747.871260446849	1096.000705747204	244.626687994532	769.809525581486	835.144318063181	239.136101368578	997.748389319287	1094.938088704472	789.578262431351	1235.616696445177	1122.643263007669	712.783324568199	
128	5.162857142857	703.835223431112	1003.820880663401	526.133192827176	858.252195031920	1433.507271777626	348.248448185672	974.952932053532	1361.163462280676	497.837514413278	904.131567253421	1430.121572809315	679.054426259500	861.916480722452	1490.407201236496	502.597829677327	930.248619103382	934.854703509592	639.320802212045	912.345171503798	953.722315062974	364.379041989338	924.529282564773	720.615173912524	612.609132549313	813.576347066801	629.901334389863	668.787641342040	875.776887577269	561.056041801360	592.584773438489	850.712630393508	472.315778652279	594.526611470480	981.793915365189	761.099605162818	398.947481184488	921.173614329829	634.413439379083	328.518930457636	1019.150698730563	572.663719335778	394.470285751940	1034.385796286510	502.411678749305	397.128812586673	1015.944939587140	429.485231192526	386.403382129192	941.711033362599	304.222313625050	336.613451983888	1015.496999306320	200.147338814925	398.836405139243	802.777988340633	393.468778085231	599.607045571501	707.450237431620	309.130248221489	659.567408850838	725.834063677949	207.538392503326	595.367251359321	560.188541982535	63.054992817511	563.652545557031	736.993479940318	99.428975551612	596.932724031176	643.955097410866	43.072974268287	633.816824373353	851.123168307649	37.157283575489	618.150395499846	910.075156986290	37.157248217259	438.328657607467	984.159682462078	35.272573489657	358.010894244976	1066.302308875432	97.202768417433	383.749753093969	1195.281165661647	46.275585051267	355.951571162559	751.560522157773	1095.014343038485	241.360739543788	778.504258712414	834.429071107486	234.978640425580	991.859848304261	1093.862221931530	789.040783884666	1231.980036487002	1110.733154807597	714.621040388914	
